<svg width="34" height="34" viewBox="0 0 34 34" fill="none" xmlns="http://www.w3.org/2000/svg">
<path d="M34 0.295995L33.2 6.15408C31.12 5.99358 29.6 6.42157 28.64 7.43803C27.68 8.4545 27.0933 9.81871 26.88 11.5307C26.6667 13.2426 26.6133 15.0883 26.72 17.0677H34V34H20.32V13.8578C20.32 8.93599 21.5467 5.2446 24 2.78367C26.5067 0.322745 29.84 -0.506481 34 0.295995ZM13.68 0.295995L12.88 6.15408C10.8 5.99358 9.28 6.42157 8.32 7.43803C7.36 8.4545 6.77333 9.81871 6.56 11.5307C6.34667 13.2426 6.29333 15.0883 6.4 17.0677H13.68V34H0V13.8578C0 8.93599 1.22667 5.2446 3.68 2.78367C6.18667 0.322745 9.52 -0.506481 13.68 0.295995Z" fill="#023A3A"/>
</svg>
