<svg width="289" height="325" viewBox="0 0 289 325" fill="none" xmlns="http://www.w3.org/2000/svg">
<path d="M220.564 1.0647e-05C220.957 -0.00355357 222.794 0.888209 224.647 1.98741C226.5 3.08305 230.497 5.76691 233.527 7.94964C236.556 10.1288 240.969 13.4849 243.324 15.4031C245.68 17.3214 250.824 22.1074 254.756 26.0373C258.683 29.9679 263.399 35.1075 265.228 37.462C267.057 39.8116 269.907 43.7543 271.557 46.2222C273.206 48.69 275.688 52.9051 277.067 55.5889C278.447 58.2728 280.407 62.5784 281.42 65.156C282.437 67.7301 283.927 72.129 284.731 74.9312C285.539 77.7291 286.637 82.3112 287.181 85.1127C287.719 87.9106 288.385 92.13 288.658 94.4802C288.981 97.2581 289.079 101.827 288.936 107.513C288.809 112.584 288.442 117.899 288.063 120.139C287.703 122.269 287.127 125.291 286.784 126.859C286.441 128.427 285.412 131.999 284.498 134.801C283.579 137.599 282.065 141.631 281.13 143.761C280.199 145.891 278.178 149.83 276.643 152.518C275.112 155.206 272.548 159.238 270.947 161.477C269.351 163.718 266.462 167.383 264.53 169.623C262.595 171.863 258.814 175.802 256.128 178.38C253.442 180.958 249.509 184.464 247.387 186.18C245.263 187.894 241.508 190.709 239.038 192.431C236.568 194.158 232.065 197.045 229.035 198.854C226.006 200.662 220.585 203.562 216.992 205.297C213.399 207.032 208.116 209.382 205.255 210.522C202.392 211.659 197.889 213.317 195.252 214.204C192.614 215.092 188.801 216.257 183.106 217.764L182.902 325H128.195V223.587L127.275 223.38C126.768 223.27 123.784 222.712 120.641 222.15C117.497 221.584 111.709 220.289 107.781 219.275C103.85 218.257 100.629 217.483 100.621 217.552C100.611 217.627 98.7574 219.789 96.5048 222.366C94.2515 224.944 87.6823 232.731 81.9101 239.676C76.1373 246.619 70.8215 253.029 70.1023 253.922C69.3795 254.81 66.9998 257.881 64.8115 260.744C62.6232 263.603 59.2507 268.189 57.3238 270.934C55.3926 273.679 52.6494 277.85 51.2288 280.199C49.804 282.549 47.8114 286.215 46.803 288.345C45.7909 290.475 44.4918 293.636 43.9161 295.371C43.3369 297.106 42.6799 299.949 42.4549 301.684C42.2264 303.419 42.1571 305.939 42.3035 307.283C42.4506 308.627 42.9041 310.643 43.3162 311.764C43.7247 312.884 44.7575 314.598 45.6067 315.576C46.6073 316.724 48.0928 317.78 49.8076 318.562C51.2653 319.225 52.9186 319.99 53.4821 320.26C54.3513 320.679 54.5192 321.062 54.707 325H27.3531C12.3114 325 0.0049994 324.907 0 324.797C0 324.686 4.27807 319.6 9.50744 313.495C14.7375 307.39 22.1238 298.731 25.9205 294.251C29.7171 289.771 34.1223 284.627 35.7021 282.823C37.2862 281.018 43.1741 274.164 48.7877 267.59C54.4006 261.017 62.4718 251.589 66.7263 246.64C70.9758 241.688 78.3249 233.167 83.0564 227.705C87.7845 222.244 92.1611 217.157 92.7774 216.403C93.3938 215.65 93.8552 214.962 93.798 214.876C93.7395 214.79 92.0418 214.041 90.022 213.218C88.0008 212.392 84.0492 210.522 81.2445 209.068C78.4356 207.61 74.1204 205.093 71.65 203.472C69.1803 201.851 65.505 199.265 63.4845 197.725C61.4633 196.186 57.1403 192.26 53.8778 188.994C50.6118 185.731 46.7458 181.503 45.2838 179.601C43.8226 177.7 41.7036 174.763 40.5765 173.085C39.4538 171.403 37.6776 168.565 36.637 166.772C35.5957 164.98 33.6524 161.221 32.3175 158.423C30.987 155.621 29.0479 150.994 28.0109 148.139C26.9775 145.285 25.5984 141.069 24.9492 138.772C24.2999 136.474 23.2993 132.488 22.7273 129.913C22.1516 127.335 21.2175 122.204 20.654 118.51C20.0862 114.812 19.4334 108.764 19.2048 105.07C18.972 101.372 18.7842 95.5067 18.7842 92.0366C18.7842 88.5629 18.9677 83.1581 19.192 80.0223C19.4162 76.8858 19.8291 72.7157 20.6168 67.1805L71.2414 67.2175L72.6706 68.2968C73.4583 68.887 74.9246 70.0974 75.9366 70.9849C76.9493 71.8688 79.6726 74.4465 81.9959 76.7147C84.3185 78.9837 87.7316 82.853 89.5771 85.3173C91.4262 87.7809 93.6716 90.9858 94.5736 92.4443C95.4721 93.8978 97.3383 97.38 98.7224 100.182C100.102 102.98 101.69 106.556 102.253 108.125C102.813 109.692 103.278 111.114 103.282 111.28C103.286 111.448 102.188 111.953 100.841 112.401C98.5303 113.171 98.3753 113.174 98.1339 112.502C97.9954 112.112 97.154 110.047 96.2642 107.921C95.3785 105.79 93.5452 101.942 92.1896 99.3674C90.8341 96.7898 88.4822 92.9412 86.9595 90.8148C85.4404 88.6848 82.7508 85.3123 80.9874 83.3128C79.219 81.3133 76.1209 78.2459 74.0997 76.4952C72.0799 74.7444 70.3123 73.4499 70.1723 73.6117C70.0337 73.7785 69.6245 75.746 69.2617 77.9857C68.9024 80.2262 68.4246 83.7084 68.1997 85.7243C67.9754 87.7403 67.6697 91.8619 67.5269 94.8879C67.3719 98.0487 67.4612 103.16 67.739 106.903C68.004 110.487 68.4939 115.158 68.8246 117.288C69.1553 119.415 69.8902 123.357 70.4573 126.044C71.025 128.732 71.9314 132.488 72.4706 134.394C73.0134 136.296 74.0175 139.505 74.7082 141.521C75.3981 143.537 76.5444 146.652 77.2593 148.445C77.9778 150.237 79.884 154.358 81.4966 157.609C83.1136 160.854 86.2246 166.17 88.4129 169.42C90.597 172.666 93.4145 176.608 94.6679 178.176C95.9213 179.745 98.4196 182.558 100.22 184.432C102.021 186.301 105.022 189.144 106.891 190.745C108.757 192.341 112.431 195.156 115.057 196.993C117.678 198.829 121.568 201.253 123.704 202.377C125.839 203.501 127.721 204.429 127.888 204.433C128.056 204.403 128.195 176.337 128.195 79.8184L130.705 76.2549C132.085 74.296 134.327 71.2251 135.69 69.433C137.05 67.641 139.81 64.1587 141.818 61.6944C143.827 59.2301 146.48 56.1143 147.713 54.7706C148.946 53.4269 153.004 49.2403 156.732 45.4644C160.459 41.6892 166.061 36.3742 169.18 33.6533C172.299 30.9324 176.247 27.6298 177.958 26.3146C179.664 25.003 182.534 22.8238 184.331 21.4715C186.127 20.1236 190.72 16.9671 194.537 14.4622C198.354 11.9537 202.854 9.10302 204.54 8.12143C206.222 7.14341 210.358 4.92005 213.726 3.17715C217.094 1.43425 220.172 0.0042877 220.564 1.0647e-05ZM257.594 39.2049C257.267 39.1565 254.519 40.1174 251.491 41.3349C248.461 42.5567 243.317 44.8863 240.059 46.5116C236.801 48.1368 231.934 50.8449 229.24 52.5308C226.546 54.2174 222.23 57.0966 219.646 58.9378C217.062 60.7741 212.562 64.2321 209.643 66.6187C206.724 69.0053 200.649 74.646 196.142 79.1548C191.635 83.6635 185.506 90.2858 182.526 93.87C179.546 97.4535 175.247 102.859 172.973 105.885C170.695 108.911 166.967 114.133 164.685 117.492C162.403 120.853 158.937 126.257 156.982 129.507C155.03 132.757 151.666 138.711 149.511 142.743C147.355 146.775 144.598 152.274 143.382 154.962C142.169 157.65 140.267 162.143 139.157 164.94C138.042 167.743 136.589 171.958 135.927 174.307L134.719 178.584L134.699 207.094C137.409 208.185 140.312 209.048 142.892 209.712C145.473 210.376 149.241 211.252 151.262 211.651C154.201 212.233 156.973 212.38 165.143 212.38C173.353 212.38 176.067 212.238 179.024 211.647C181.045 211.24 184.809 210.381 187.393 209.729C189.977 209.081 193.652 208.014 195.558 207.362C197.465 206.707 200.866 205.44 203.111 204.54C205.357 203.64 209.125 202.039 211.48 200.984C213.836 199.925 217.788 197.959 220.258 196.614C222.728 195.266 226.953 192.79 229.648 191.108C232.343 189.43 236.936 186.269 239.855 184.086C242.774 181.908 247.898 177.484 251.241 174.263C254.585 171.042 258.994 166.39 261.039 163.935C263.085 161.478 266.233 157.262 268.034 154.566C269.838 151.87 272.296 147.651 273.496 145.188C274.701 142.723 276.5 138.597 277.501 136.023C278.501 133.449 279.849 129.14 280.493 126.453C281.135 123.764 281.947 119.41 282.294 116.779C282.641 114.148 282.927 109.106 282.923 105.579C282.923 102.053 282.735 97.5155 282.51 95.4996C282.281 93.4836 281.62 89.4511 281.036 86.5384C280.453 83.6264 279.269 79.045 278.411 76.3569C277.55 73.6687 275.998 69.3596 274.966 66.7855C273.933 64.2122 272.063 60.1761 270.817 57.8258C269.573 55.4756 267.201 51.5336 265.551 49.0693C263.902 46.605 261.566 43.3965 260.37 41.9423C259.17 40.4881 257.92 39.2541 257.594 39.2049Z" fill="#DAD08E"/>
</svg>
