<svg width="175" height="159" viewBox="0 0 175 159" fill="none" xmlns="http://www.w3.org/2000/svg">
<g opacity="0.5">
<path d="M2.5002 97.5782C9.96546 87.1948 30.9212 57.3271 48.834 65.1253C56.2875 68.3702 64.6814 77.0462 66.3961 85.383C70.0784 103.286 46.0585 118.142 42.5929 94.2586C40.6493 80.8646 53.2755 69.324 62.3289 61.2752C75.6742 49.4106 90.9412 48.1566 107.977 48.9013C116.629 49.2794 156.114 60.0862 154.001 61.6889" stroke="#023A3A" stroke-width="5" stroke-linecap="round"/>
<path d="M169.039 63.7533C166.808 65.3262 149.338 76.8175 151.653 75.6946C154.684 74.2248 157.658 72.3953 160.852 71.3113C164.63 70.0289 168.027 67.8138 171.919 66.9576C175.334 66.2063 161.139 54.5049 158.248 53.0789" stroke="#023A3A" stroke-width="5" stroke-linecap="round"/>
</g>
</svg>
